<svg width="1600" height="980" viewBox="0 0 1600 980" fill="none" xmlns="http://www.w3.org/2000/svg">
  <defs>
    <linearGradient id="bg" x1="0" y1="0" x2="1600" y2="980" gradientUnits="userSpaceOnUse">
      <stop stop-color="#F6F8FB"/>
      <stop offset="1" stop-color="#EEF3F9"/>
    </linearGradient>
    <filter id="shadow" x="-20%" y="-20%" width="140%" height="160%">
      <feDropShadow dx="0" dy="10" stdDeviation="14" flood-color="#4B5A6A" flood-opacity="0.14"/>
    </filter>
    <marker id="arrow" markerWidth="12" markerHeight="12" refX="10" refY="6" orient="auto">
      <path d="M0 0L12 6L0 12V0Z" fill="#697887"/>
    </marker>
    <style>
      .title { font: 700 34px Arial, Helvetica, sans-serif; fill: #17202A; }
      .subtitle { font: 400 16px Arial, Helvetica, sans-serif; fill: #506070; }
      .section { font: 700 18px Arial, Helvetica, sans-serif; fill: #17202A; letter-spacing: 0.04em; }
      .label { font: 700 18px Arial, Helvetica, sans-serif; fill: #17202A; }
      .small { font: 400 14px Arial, Helvetica, sans-serif; fill: #5B6B7B; }
      .tiny { font: 400 13px Arial, Helvetica, sans-serif; fill: #67788A; }
      .serviceText { font: 700 15px Arial, Helvetica, sans-serif; fill: #17202A; }
      .serviceSub { font: 400 12px Arial, Helvetica, sans-serif; fill: #5B6B7B; }
      .arrowText { font: 600 13px Arial, Helvetica, sans-serif; fill: #5A6977; }
      .external { fill: #FFFFFF; stroke: #C9D3DE; stroke-width: 2; }
      .awsBox { fill: #FFF7EF; stroke: #F59D2A; stroke-width: 2; }
      .awsTile { fill: #FFFFFF; stroke: #E5EAF1; stroke-width: 2; }
    </style>
  </defs>

  <rect width="1600" height="980" fill="url(#bg)"/>

  <text x="60" y="74" class="title">Voxly Cloud Architecture on AWS</text>
  <text x="60" y="104" class="subtitle">Presentation-ready architecture for the Next.js transcription and AI insights platform</text>

  <rect x="56" y="150" width="210" height="110" rx="24" class="external" filter="url(#shadow)"/>
  <circle cx="118" cy="194" r="22" fill="#E9F1FF" stroke="#9FB8E8" stroke-width="2"/>
  <path d="M118 179C111 179 105 184.8 105 192C105 199 111 205 118 205C125 205 131 199 131 192C131 184.8 125 179 118 179ZM94 226C94 213.8 104 204 116.2 204H119.8C132 204 142 213.8 142 226" stroke="#5877B8" stroke-width="3" stroke-linecap="round"/>
  <text x="160" y="192" class="label">End Users</text>
  <text x="160" y="217" class="small">Web and mobile</text>

  <rect x="312" y="150" width="250" height="110" rx="24" class="external" filter="url(#shadow)"/>
  <circle cx="372" cy="194" r="24" fill="#FFF0E0" stroke="#E8B170" stroke-width="2"/>
  <path d="M355 194C355 184.6 362.6 177 372 177C381.4 177 389 184.6 389 194C389 203.4 381.4 211 372 211C362.6 211 355 203.4 355 194Z" stroke="#B56C1A" stroke-width="3"/>
  <path d="M372 173V215M351 194H393" stroke="#B56C1A" stroke-width="3" stroke-linecap="round"/>
  <text x="415" y="190" class="label">Cloudflare DNS</text>
  <text x="415" y="216" class="small">Public domain and routing</text>

  <path d="M266 205H312" stroke="#697887" stroke-width="3" marker-end="url(#arrow)"/>
  <text x="275" y="192" class="arrowText">HTTPS request</text>

  <rect x="610" y="130" width="930" height="780" rx="36" class="awsBox" filter="url(#shadow)"/>
  <text x="650" y="178" class="section">AWS CLOUD</text>

  <rect x="650" y="210" width="260" height="150" rx="26" class="awsTile"/>
  <rect x="674" y="236" width="74" height="74" rx="16" fill="#FF9900"/>
  <path d="M695 270H727M711 254V286" stroke="white" stroke-width="5" stroke-linecap="round"/>
  <text x="768" y="262" class="serviceText">AWS Certificate Manager</text>
  <text x="768" y="285" class="serviceSub">TLS certificate for HTTPS</text>
  <text x="768" y="304" class="serviceSub">Used with Beanstalk load balancer</text>

  <rect x="950" y="210" width="540" height="210" rx="28" class="awsTile"/>
  <rect x="975" y="238" width="88" height="88" rx="18" fill="#FF9900"/>
  <path d="M1000 299C1000 280 1011 259 1019 247C1028 259 1039 280 1039 299H1000Z" stroke="white" stroke-width="5" fill="none" stroke-linejoin="round"/>
  <path d="M1006 301C1011 312 1027 312 1032 301" stroke="white" stroke-width="5" stroke-linecap="round"/>
  <text x="1088" y="270" class="serviceText">AWS Elastic Beanstalk</text>
  <text x="1088" y="294" class="serviceSub">Runs the Voxly Next.js application</text>
  <text x="1088" y="315" class="serviceSub">App Router, API routes, Prisma, auth, billing, uploads</text>
  <rect x="1088" y="338" width="172" height="34" rx="17" fill="#FFF2DC" stroke="#F5C27A"/>
  <text x="1112" y="360" class="tiny">EC2 + ALB managed runtime</text>

  <path d="M562 205H650" stroke="#697887" stroke-width="3" marker-end="url(#arrow)"/>
  <text x="573" y="192" class="arrowText">Route traffic to app</text>

  <path d="M780 360V406" stroke="#697887" stroke-width="3" marker-end="url(#arrow)"/>
  <path d="M1220 420V468" stroke="#697887" stroke-width="3" marker-end="url(#arrow)"/>
  <text x="795" y="393" class="arrowText">TLS</text>
  <text x="1236" y="452" class="arrowText">App access</text>

  <rect x="650" y="470" width="270" height="168" rx="26" class="awsTile"/>
  <rect x="674" y="494" width="74" height="74" rx="16" fill="#FF9900"/>
  <path d="M698 521C698 512 707 507 720 507C733 507 742 512 742 521C742 530 733 535 720 535C707 535 698 530 698 521Z" stroke="white" stroke-width="5"/>
  <path d="M698 521V545C698 554 707 559 720 559C733 559 742 554 742 545V521" stroke="white" stroke-width="5"/>
  <text x="770" y="522" class="serviceText">Amazon RDS for PostgreSQL</text>
  <text x="770" y="546" class="serviceSub">Primary relational database</text>
  <text x="770" y="567" class="serviceSub">Stores users, sessions, subscriptions, transcriptions</text>
  <text x="770" y="588" class="serviceSub">Accessed through Prisma ORM</text>

  <rect x="960" y="470" width="270" height="168" rx="26" class="awsTile"/>
  <rect x="984" y="494" width="74" height="74" rx="16" fill="#FF9900"/>
  <path d="M1010 545H1034V525C1034 516 1028 510 1019 510H1006C997 510 991 516 991 525V545H1010Z" stroke="white" stroke-width="5" stroke-linejoin="round"/>
  <path d="M999 545H1027" stroke="white" stroke-width="5" stroke-linecap="round"/>
  <text x="1080" y="522" class="serviceText">Amazon S3</text>
  <text x="1080" y="546" class="serviceSub">Stores uploaded audio files</text>
  <text x="1080" y="567" class="serviceSub">Signed URLs for controlled access</text>
  <text x="1080" y="588" class="serviceSub">Scalable object storage for media workflows</text>

  <rect x="1270" y="470" width="220" height="168" rx="26" class="awsTile"/>
  <rect x="1294" y="494" width="74" height="74" rx="16" fill="#FF9900"/>
  <path d="M1306 550L1320 534L1334 543L1350 518" stroke="white" stroke-width="5" stroke-linecap="round" stroke-linejoin="round"/>
  <path d="M1307 517V551H1356" stroke="white" stroke-width="5" stroke-linecap="round"/>
  <text x="1390" y="522" text-anchor="middle" class="serviceText">Amazon</text>
  <text x="1390" y="544" text-anchor="middle" class="serviceText">CloudWatch</text>
  <text x="1390" y="569" text-anchor="middle" class="serviceSub">Logs, metrics,</text>
  <text x="1390" y="589" text-anchor="middle" class="serviceSub">monitoring alarms</text>

  <path d="M1120 420V468" stroke="#697887" stroke-width="3" marker-end="url(#arrow)"/>
  <path d="M1320 420V468" stroke="#697887" stroke-width="3" marker-end="url(#arrow)"/>
  <text x="1135" y="452" class="arrowText">Upload audio</text>
  <text x="1334" y="452" class="arrowText">App logs</text>

  <path d="M1086 555H920" stroke="#697887" stroke-width="3" marker-end="url(#arrow)"/>
  <text x="965" y="540" class="arrowText">Metadata and records</text>

  <rect x="650" y="690" width="390" height="180" rx="26" class="awsTile"/>
  <rect x="674" y="714" width="74" height="74" rx="16" fill="#FF9900"/>
  <path d="M698 771L710 747L722 771L734 735" stroke="white" stroke-width="5" stroke-linecap="round" stroke-linejoin="round"/>
  <text x="770" y="744" class="serviceText">AWS Secrets Manager</text>
  <text x="770" y="768" class="serviceSub">Recommended hardening step for runtime secrets</text>
  <text x="770" y="789" class="serviceSub">NEXTAUTH, Stripe, OpenAI, Deepgram, email, S3 config</text>
  <text x="770" y="810" class="serviceSub">Current starter can also use Beanstalk env vars</text>

  <rect x="1080" y="690" width="410" height="180" rx="26" class="awsTile"/>
  <rect x="1104" y="714" width="74" height="74" rx="16" fill="#FF9900"/>
  <path d="M1121 762H1161M1129 742H1154M1129 782H1154" stroke="white" stroke-width="5" stroke-linecap="round"/>
  <text x="1200" y="744" class="serviceText">Terraform Provisioned Infrastructure</text>
  <text x="1200" y="768" class="serviceSub">VPC, IAM, Beanstalk, S3, optional RDS, Redis, ACM</text>
  <text x="1200" y="789" class="serviceSub">Repeatable and automated environment setup</text>
  <text x="1200" y="810" class="serviceSub">Prepared for CI/CD deployment workflows</text>

  <path d="M1220 420V690" stroke="#D2A464" stroke-width="2.5" stroke-dasharray="8 10"/>
  <path d="M1220 690H1192" stroke="#D2A464" stroke-width="2.5" stroke-dasharray="8 10"/>
  <text x="1235" y="670" class="arrowText">Provisioning</text>

  <rect x="60" y="380" width="440" height="500" rx="28" class="external" filter="url(#shadow)"/>
  <text x="96" y="430" class="section">EXTERNAL SERVICES</text>

  <rect x="96" y="466" width="368" height="86" rx="22" fill="#F9FBFD" stroke="#D5DDE7" stroke-width="2"/>
  <circle cx="138" cy="509" r="20" fill="#E7F6EF" stroke="#95CCB2" stroke-width="2"/>
  <path d="M126 514L136 502L143 509L151 499" stroke="#2E8B57" stroke-width="4" stroke-linecap="round" stroke-linejoin="round"/>
  <text x="174" y="503" class="label">Deepgram</text>
  <text x="174" y="526" class="small">Speech-to-text transcription processing</text>

  <rect x="96" y="570" width="368" height="86" rx="22" fill="#F9FBFD" stroke="#D5DDE7" stroke-width="2"/>
  <circle cx="138" cy="613" r="20" fill="#EEF0FF" stroke="#B0B7F1" stroke-width="2"/>
  <path d="M126 612C126 604 132 598 140 598C148 598 154 604 154 612C154 620 148 626 140 626H126L132 620" stroke="#5765D4" stroke-width="4" stroke-linecap="round" stroke-linejoin="round"/>
  <text x="174" y="607" class="label">OpenAI / Gemini</text>
  <text x="174" y="630" class="small">AI summaries, chat, and insight generation</text>

  <rect x="96" y="674" width="368" height="86" rx="22" fill="#F9FBFD" stroke="#D5DDE7" stroke-width="2"/>
  <circle cx="138" cy="717" r="20" fill="#FFF1F1" stroke="#E8B3B3" stroke-width="2"/>
  <path d="M126 706H150L154 716L138 728L122 716L126 706Z" stroke="#C45757" stroke-width="4" stroke-linejoin="round"/>
  <text x="174" y="711" class="label">Stripe</text>
  <text x="174" y="734" class="small">Subscriptions, billing, checkout, and webhooks</text>

  <rect x="96" y="778" width="368" height="86" rx="22" fill="#F9FBFD" stroke="#D5DDE7" stroke-width="2"/>
  <circle cx="138" cy="821" r="20" fill="#FFF7E7" stroke="#E8CB8D" stroke-width="2"/>
  <path d="M124 812H152V830H124V812ZM124 812L138 823L152 812" stroke="#B28427" stroke-width="4" stroke-linejoin="round"/>
  <text x="174" y="815" class="label">Resend / Email + Inngest</text>
  <text x="174" y="838" class="small">Email verification and optional background processing</text>

  <path d="M500 509H950" stroke="#697887" stroke-width="3" marker-end="url(#arrow)"/>
  <path d="M500 613H950" stroke="#697887" stroke-width="3" marker-end="url(#arrow)"/>
  <path d="M500 717H950" stroke="#697887" stroke-width="3" marker-end="url(#arrow)"/>
  <path d="M500 821H950" stroke="#697887" stroke-width="3" marker-end="url(#arrow)"/>
  <text x="566" y="495" class="arrowText">Audio sent for transcription</text>
  <text x="566" y="599" class="arrowText">Transcript analysis and summaries</text>
  <text x="566" y="703" class="arrowText">Payment and webhook sync</text>
  <text x="566" y="807" class="arrowText">Verification and async events</text>

  <text x="650" y="938" class="tiny">Note: official AWS icon assets were not present locally, so this diagram uses AWS-style service tiles and accurate service labels for slide use.</text>
</svg>
